<svg xmlns="http://www.w3.org/2000/svg" viewBox="0 0 24 32"><defs><style>.cls-1{fill:#00a9ec;}.cls-2{fill:#fff;}.cls-3{fill:#454545;}.cls-4{fill:#252525;}.cls-5{fill:#f60;}.cls-6{fill:#e28542;}.cls-7{fill:#ffac75;}.cls-8{fill:#0078d7;}.cls-9{fill:#505050;}.cls-10{fill:#7f7f7f;}</style></defs><g id="Background"><rect class="cls-1" x="4.5" y="8.5" width="15" height="17"/><path class="cls-1" d="M23,9V25H9V9H23m1-1H8V26H24V8Z" transform="translate(-4)"/><rect class="cls-2" x="3.5" y="24.5" width="17" height="4"/><path class="cls-2" d="M24,25v3H8V25H24m1-1H7v5H25V24Z" transform="translate(-4)"/><rect class="cls-2" x="3.5" y="3.5" width="17" height="5"/><path class="cls-2" d="M24,4V8H8V4H24m1-1H7V9H25V3Z" transform="translate(-4)"/><rect class="cls-2" x="8.5" y="8.5" width="7" height="1"/><polygon class="cls-2" points="16 8 8 8 8 10 16 10 16 8 16 8"/></g><g id="Border"><rect class="cls-3" x="0.5" y="0.5" width="23" height="2"/><path class="cls-3" d="M27,1V2H5V1H27m1-1H4V3H28V0Z" transform="translate(-4)"/><rect class="cls-3" x="21.5" y="0.5" width="2" height="31"/><path class="cls-3" d="M27,1V31H26V1h1m1-1H25V32h3V0Z" transform="translate(-4)"/><rect class="cls-3" x="0.5" y="0.5" width="2" height="27"/><path class="cls-3" d="M6,1V27H5V1H6M7,0H4V28H7V0Z" transform="translate(-4)"/><rect class="cls-3" x="0.5" y="26.5" width="3" height="1"/><polygon class="cls-3" points="4 26 0 26 0 28 4 28 4 26 4 26"/><rect class="cls-3" x="2.5" y="26.5" width="3" height="3"/><path class="cls-3" d="M9,27v2H7V27H9m1-1H6v4h4V26Z" transform="translate(-4)"/><rect class="cls-3" x="4.5" y="28.5" width="1" height="3"/><path class="cls-3" d="M9,29v0m1-1H8v4h2V28Z" transform="translate(-4)"/><rect class="cls-3" x="4.5" y="29.5" width="19" height="2"/><path class="cls-3" d="M27,30v1H9V30H27m1-1H8v3H28V29Z" transform="translate(-4)"/><rect class="cls-4" x="2.5" y="2.5" width="19" height="1"/><polygon class="cls-4" points="22 2 2 2 2 4 22 4 22 2 22 2"/><rect class="cls-4" x="2.5" y="2.5" width="1" height="23"/><path class="cls-4" d="M7,3V3M8,2H6V26H8V2Z" transform="translate(-4)"/><rect class="cls-4" x="20.5" y="2.5" width="1" height="27"/><path class="cls-4" d="M25,3V3m1-1H24V30h2V2Z" transform="translate(-4)"/><rect class="cls-4" x="6.5" y="28.5" width="15" height="1"/><polygon class="cls-4" points="22 28 6 28 6 30 22 30 22 28 22 28"/><rect class="cls-4" x="4.5" y="26.5" width="1" height="1"/><polygon class="cls-4" points="6 26 4 26 4 28 6 28 6 26 6 26"/></g><g id="Details"><rect class="cls-2" x="10" y="20" width="4" height="1"/><polygon class="cls-2" points="14 20 10 20 10 21 14 21 14 20 14 20"/><rect class="cls-2" x="7.5" y="13.5" width="9" height="5"/><path class="cls-2" d="M20,14v4H12V14h8m1-1H11v6H21V13Z" transform="translate(-4)"/><rect class="cls-5" x="7.5" y="13.5" width="9" height="4"/><path class="cls-5" d="M20,14v3H12V14h8m1-1H11v5H21V13Z" transform="translate(-4)"/><path class="cls-6" d="M11.5,17.5Z" transform="translate(-4)"/><polygon class="cls-6" points="8 13 7 13 7 18 8 18 8 13 8 13"/><path class="cls-6" d="M20.5,17.5Z" transform="translate(-4)"/><polygon class="cls-7" points="17 13 16 13 16 18 17 18 17 13 17 13"/><rect class="cls-8" x="11.5" y="15.5" width="1" height="1"/><polygon class="cls-8" points="13 15 11 15 11 17 13 17 13 15 13 15"/><rect x="17" y="6" width="1" height="1"/><polygon points="18 6 17 6 17 7 18 7 18 6 18 6"/><rect x="6" y="6" width="10" height="1"/><polygon points="16 6 6 6 6 7 16 7 16 6 16 6"/><rect x="13" y="7" width="3" height="1"/><polygon points="16 7 13 7 13 8 16 8 16 7 16 7"/><rect x="17" y="26" width="2" height="1"/><polygon points="19 26 17 26 17 27 19 27 19 26 19 26"/><rect x="14" y="26" width="2" height="1"/><polygon points="16 26 14 26 14 27 16 27 16 26 16 26"/><rect x="11" y="26" width="2" height="1"/><polygon points="13 26 11 26 11 27 13 27 13 26 13 26"/><rect class="cls-9" x="12" y="7" width="1" height="1"/><polygon class="cls-9" points="13 7 12 7 12 8 13 8 13 7 13 7"/><rect class="cls-10" x="13" y="26" width="1" height="1"/><polygon class="cls-10" points="14 26 13 26 13 27 14 27 14 26 14 26"/><rect class="cls-10" x="16" y="26" width="1" height="1"/><polygon class="cls-10" points="17 26 16 26 16 27 17 27 17 26 17 26"/></g></svg>